<svg xmlns="http://www.w3.org/2000/svg" xmlns:xlink="http://www.w3.org/1999/xlink" width="3000.001" height="391.193" viewBox="0 0 3000.001 391.193">
    <style>
      @media screen and (max-width: 250px) {
        #camp {
          display: none;
        }
      }
    </style>
    <path fill-rule="evenodd" clip-rule="evenodd" fill="#fff" d="M0 0h3000.002v391.193H0z" />
    <g id="camp" fill="#5C646E">
        <path d="M2495.542 111.105l18.82 50.326h-11.49l-3.805-11.206h-18.82l-3.946 11.207h-11.136l19.03-50.325h11.348zm.635 30.874l-6.344-18.468h-.14l-6.556 18.467h13.04zM2551.014 124.533c-.66-1.057-1.48-1.984-2.467-2.785-.987-.797-2.104-1.42-3.348-1.867-1.247-.444-2.55-.67-3.913-.67-2.49 0-4.606.483-6.344 1.446-1.74.963-3.15 2.256-4.23 3.877-1.08 1.62-1.867 3.465-2.36 5.533-.494 2.068-.74 4.205-.74 6.414 0 2.115.247 4.17.74 6.168.493 1.998 1.28 3.795 2.36 5.39 1.08 1.6 2.49 2.88 4.23 3.843 1.738.966 3.853 1.446 6.344 1.446 3.383 0 6.026-1.033 7.93-3.102 1.903-2.066 3.066-4.793 3.49-8.176h10.713c-.282 3.148-1.01 5.99-2.185 8.53-1.175 2.536-2.726 4.698-4.652 6.483-1.928 1.786-4.183 3.15-6.767 4.09-2.585.938-5.428 1.41-8.53 1.41-3.853 0-7.32-.67-10.395-2.01-3.078-1.34-5.673-3.183-7.788-5.534-2.114-2.35-3.735-5.11-4.863-8.28s-1.693-6.59-1.693-10.257c0-3.76.564-7.25 1.692-10.468s2.748-6.027 4.862-8.424c2.115-2.396 4.71-4.275 7.79-5.64 3.076-1.36 6.542-2.042 10.395-2.042 2.772 0 5.392.398 7.86 1.197 2.466.8 4.674 1.963 6.624 3.488 1.95 1.53 3.56 3.42 4.83 5.677 1.27 2.254 2.067 4.84 2.396 7.752h-10.714c-.188-1.266-.61-2.43-1.268-3.487zM2603.244 124.533c-.66-1.057-1.48-1.984-2.467-2.785-.987-.797-2.104-1.42-3.348-1.867-1.247-.444-2.55-.67-3.913-.67-2.49 0-4.606.483-6.344 1.446-1.74.963-3.15 2.256-4.23 3.877-1.08 1.62-1.867 3.465-2.36 5.533-.494 2.068-.74 4.205-.74 6.414 0 2.115.247 4.17.74 6.168.493 1.998 1.28 3.795 2.36 5.39 1.08 1.6 2.49 2.88 4.23 3.843 1.738.966 3.853 1.446 6.344 1.446 3.383 0 6.026-1.033 7.93-3.102 1.903-2.066 3.066-4.793 3.49-8.176h10.713c-.282 3.148-1.01 5.99-2.185 8.53-1.175 2.536-2.726 4.698-4.652 6.483-1.928 1.786-4.183 3.15-6.767 4.09-2.585.938-5.428 1.41-8.53 1.41-3.853 0-7.32-.67-10.395-2.01-3.078-1.34-5.673-3.183-7.788-5.534-2.114-2.35-3.735-5.11-4.863-8.28s-1.693-6.59-1.693-10.257c0-3.76.564-7.25 1.692-10.468s2.748-6.027 4.862-8.424c2.115-2.396 4.71-4.275 7.79-5.64 3.076-1.36 6.542-2.042 10.395-2.042 2.772 0 5.392.398 7.86 1.197 2.466.8 4.674 1.963 6.624 3.488 1.95 1.53 3.56 3.42 4.83 5.677 1.27 2.254 2.067 4.84 2.396 7.752h-10.714c-.188-1.266-.61-2.43-1.268-3.487zM2660.83 111.105v9.305h-26.573v10.783h24.388v8.6h-24.388v12.336h27.137v9.302h-38.203v-50.326h37.64zM2677.322 149.027c.61 1.174 1.42 2.127 2.433 2.854 1.01.73 2.195 1.27 3.56 1.622 1.362.354 2.77.53 4.23.53.986 0 2.043-.083 3.17-.247s2.187-.482 3.173-.953c.987-.47 1.81-1.115 2.467-1.938s.987-1.867.987-3.137c0-1.36-.436-2.467-1.305-3.312s-2.01-1.55-3.418-2.115c-1.41-.562-3.01-1.057-4.794-1.48-1.786-.422-3.595-.89-5.428-1.408-1.88-.47-3.712-1.045-5.498-1.73-1.786-.68-3.383-1.56-4.793-2.642-1.41-1.08-2.55-2.432-3.418-4.053-.87-1.62-1.306-3.582-1.306-5.885 0-2.584.553-4.828 1.657-6.732 1.105-1.902 2.55-3.488 4.336-4.758 1.785-1.268 3.806-2.207 6.062-2.818 2.255-.61 4.51-.916 6.767-.916 2.63 0 5.156.293 7.577.88 2.42.59 4.57 1.54 6.45 2.855 1.878 1.316 3.37 2.996 4.475 5.04 1.104 2.044 1.656 4.522 1.656 7.437h-10.714c-.095-1.504-.412-2.75-.952-3.736-.54-.986-1.258-1.762-2.15-2.326-.893-.562-1.914-.963-3.065-1.197-1.152-.233-2.408-.353-3.77-.353-.895 0-1.788.096-2.68.283-.894.188-1.704.518-2.432.986-.728.47-1.327 1.057-1.797 1.762s-.705 1.598-.705 2.68c0 .986.188 1.785.564 2.396.375.61 1.115 1.174 2.22 1.69 1.104.52 2.632 1.034 4.582 1.552 1.95.518 4.5 1.174 7.647 1.973.94.187 2.244.528 3.913 1.02 1.667.494 3.324 1.28 4.97 2.36 1.644 1.083 3.065 2.528 4.264 4.337s1.798 4.123 1.798 6.94c0 2.306-.447 4.442-1.34 6.417-.893 1.973-2.22 3.676-3.982 5.11-1.762 1.433-3.947 2.548-6.555 3.347-2.608.8-5.628 1.2-9.058 1.2-2.773 0-5.463-.342-8.07-1.023-2.608-.68-4.91-1.75-6.908-3.207-1.997-1.455-3.583-3.312-4.758-5.568-1.175-2.254-1.738-4.934-1.69-8.035h10.713c0 1.69.305 3.127.915 4.3zM2723.066 149.027c.61 1.174 1.42 2.127 2.433 2.854 1.01.73 2.194 1.27 3.56 1.622 1.36.354 2.77.53 4.228.53.987 0 2.044-.083 3.172-.247s2.186-.482 3.172-.953c.987-.47 1.81-1.115 2.467-1.938s.986-1.867.986-3.137c0-1.36-.436-2.467-1.305-3.312s-2.008-1.55-3.417-2.115c-1.41-.562-3.008-1.057-4.793-1.48-1.786-.422-3.595-.89-5.428-1.408-1.88-.47-3.712-1.045-5.498-1.73-1.786-.68-3.383-1.56-4.793-2.642-1.408-1.08-2.548-2.432-3.417-4.053-.87-1.62-1.305-3.582-1.305-5.885 0-2.584.553-4.828 1.657-6.732 1.104-1.902 2.548-3.488 4.335-4.758 1.785-1.268 3.806-2.207 6.062-2.818 2.255-.61 4.51-.916 6.767-.916 2.63 0 5.155.293 7.576.88 2.42.59 4.57 1.54 6.45 2.855 1.878 1.316 3.37 2.996 4.475 5.04 1.105 2.044 1.657 4.522 1.657 7.437h-10.714c-.094-1.504-.41-2.75-.95-3.736-.542-.986-1.26-1.762-2.15-2.326-.894-.562-1.915-.963-3.066-1.197-1.152-.233-2.408-.353-3.77-.353-.895 0-1.788.096-2.68.283-.894.188-1.704.518-2.432.986-.73.47-1.328 1.057-1.798 1.762s-.705 1.598-.705 2.68c0 .986.188 1.785.564 2.396.375.61 1.115 1.174 2.22 1.69 1.104.52 2.632 1.034 4.582 1.552 1.95.518 4.5 1.174 7.647 1.973.94.187 2.243.528 3.912 1.02 1.667.494 3.324 1.28 4.97 2.36 1.644 1.083 3.065 2.528 4.264 4.337s1.8 4.123 1.8 6.94c0 2.306-.448 4.442-1.34 6.417-.894 1.973-2.22 3.676-3.983 5.11-1.762 1.433-3.947 2.548-6.555 3.347-2.608.8-5.628 1.2-9.058 1.2-2.773 0-5.463-.342-8.07-1.023-2.608-.68-4.91-1.75-6.908-3.207-1.997-1.455-3.583-3.312-4.758-5.568-1.175-2.254-1.738-4.934-1.69-8.035h10.713c0 1.69.306 3.127.916 4.3zM2771.42 111.105v50.326h-11.067v-50.325h11.066zM2804.83 111.105c2.395 0 4.58.21 6.554.635 1.974.422 3.665 1.117 5.075 2.078 1.408.965 2.5 2.246 3.276 3.842.775 1.598 1.163 3.572 1.163 5.922 0 2.537-.577 4.652-1.728 6.344-1.152 1.69-2.854 3.078-5.11 4.158 3.102.893 5.415 2.455 6.942 4.688 1.526 2.232 2.29 4.922 2.29 8.07 0 2.537-.492 4.734-1.48 6.59-.985 1.857-2.313 3.373-3.98 4.547-1.67 1.175-3.572 2.042-5.71 2.606-2.14.564-4.335.846-6.59.846h-24.39v-50.326h23.685zm-1.41 20.372c1.973 0 3.594-.47 4.862-1.41 1.27-.94 1.903-2.467 1.903-4.582 0-1.174-.21-2.137-.634-2.89-.423-.75-.986-1.34-1.69-1.763-.705-.422-1.516-.715-2.433-.88-.916-.165-1.867-.247-2.854-.247h-10.36v11.77h11.206zm.634 21.355c1.08 0 2.114-.105 3.102-.316.986-.21 1.855-.564 2.607-1.057.75-.495 1.35-1.165 1.798-2.01.446-.847.67-1.927.67-3.243 0-2.584-.73-4.428-2.185-5.533-1.457-1.104-3.384-1.656-5.78-1.656h-12.053v13.814h11.842zM2841.833 111.105v50.326h-11.066v-50.325h11.066zM2862.626 111.105v41.023h24.53v9.303h-35.597v-50.325h11.066zM2904.423 111.105v50.326h-11.066v-50.325h11.066zM2910.202 120.41v-9.305h41.234v9.305h-15.084v41.02h-11.066v-41.02h-15.084zM2951.79 111.105h12.404l11.77 19.877 11.702-19.877H3000l-18.678 31.014v19.31h-11.066v-19.593l-18.467-30.732zM2502.732 209.115c-.66-1.057-1.48-1.984-2.467-2.785-.987-.797-2.104-1.42-3.348-1.867-1.246-.445-2.55-.67-3.912-.67-2.49 0-4.606.482-6.344 1.445-1.738.963-3.148 2.256-4.228 3.877-1.082 1.62-1.868 3.465-2.36 5.533-.495 2.068-.74 4.205-.74 6.414 0 2.115.246 4.17.74 6.168.492 1.998 1.28 3.795 2.36 5.39 1.08 1.6 2.49 2.88 4.23 3.843 1.737.965 3.852 1.445 6.343 1.445 3.383 0 6.026-1.033 7.93-3.102 1.903-2.066 3.066-4.793 3.49-8.176h10.713c-.282 3.148-1.01 5.99-2.185 8.53-1.175 2.536-2.726 4.698-4.652 6.483-1.927 1.785-4.182 3.148-6.766 4.088-2.585.94-5.428 1.41-8.53 1.41-3.853 0-7.32-.67-10.395-2.01-3.08-1.34-5.675-3.18-7.79-5.532-2.114-2.35-3.735-5.11-4.863-8.28s-1.692-6.59-1.692-10.257c0-3.76.564-7.247 1.692-10.466s2.75-6.027 4.863-8.424c2.115-2.396 4.71-4.275 7.79-5.64 3.076-1.36 6.542-2.042 10.395-2.042 2.772 0 5.392.398 7.86 1.197 2.466.8 4.674 1.963 6.624 3.488 1.95 1.53 3.56 3.42 4.828 5.676 1.27 2.253 2.067 4.84 2.396 7.75H2504c-.188-1.264-.61-2.428-1.268-3.485zM2547.77 195.688l18.82 50.326h-11.488l-3.806-11.207h-18.82l-3.946 11.207h-11.137l19.03-50.326h11.348zm.636 30.873l-6.344-18.466h-.14l-6.556 18.467h13.04zM2586.54 195.688l11.77 34.61h.14l11.137-34.61h15.577v50.326h-10.36v-35.666h-.142l-12.335 35.666h-8.53l-12.334-35.312h-.14v35.312h-10.362v-50.326h15.58zM2657.587 195.688c3.147 0 5.826.46 8.035 1.375s4.006 2.127 5.393 3.63c1.386 1.505 2.396 3.22 3.03 5.145.635 1.928.952 3.924.952 5.99 0 2.02-.317 4.008-.95 5.957-.636 1.95-1.647 3.678-3.032 5.18-1.387 1.506-3.184 2.715-5.393 3.63s-4.888 1.376-8.035 1.376h-11.63v18.044h-11.066v-50.326h22.697zm-3.03 23.683c1.27 0 2.49-.093 3.665-.282 1.174-.186 2.208-.55 3.102-1.092.892-.54 1.608-1.305 2.15-2.29.54-.987.81-2.278.81-3.878 0-1.596-.27-2.89-.81-3.877-.542-.985-1.26-1.75-2.15-2.288-.894-.54-1.928-.904-3.102-1.094-1.176-.188-2.396-.28-3.665-.28h-8.6v15.083h8.6zM2701.006 210.596c1.128-3.22 2.75-6.027 4.863-8.424 2.114-2.396 4.71-4.275 7.788-5.64 3.077-1.36 6.543-2.042 10.396-2.042 3.9 0 7.377.682 10.432 2.043 3.054 1.363 5.64 3.242 7.754 5.64 2.114 2.395 3.735 5.204 4.863 8.423s1.69 6.707 1.69 10.467c0 3.666-.562 7.084-1.69 10.256s-2.75 5.93-4.863 8.28c-2.115 2.352-4.7 4.193-7.754 5.533-3.055 1.34-6.532 2.01-10.432 2.01-3.854 0-7.32-.67-10.396-2.01-3.078-1.34-5.674-3.182-7.79-5.533-2.113-2.35-3.734-5.11-4.862-8.28s-1.69-6.59-1.69-10.257c-.002-3.76.562-7.25 1.69-10.467zm10.114 16.634c.494 1.998 1.28 3.795 2.36 5.39 1.082 1.6 2.49 2.88 4.23 3.843 1.738.965 3.853 1.445 6.344 1.445 2.49 0 4.604-.48 6.344-1.445 1.737-.963 3.147-2.242 4.23-3.842 1.08-1.595 1.867-3.392 2.36-5.39.494-1.998.74-4.053.74-6.168 0-2.21-.246-4.346-.74-6.414-.493-2.068-1.28-3.912-2.36-5.533s-2.492-2.914-4.23-3.877c-1.74-.963-3.854-1.445-6.344-1.445s-4.605.482-6.344 1.445c-1.74.963-3.148 2.256-4.23 3.877s-1.866 3.465-2.36 5.533c-.493 2.068-.74 4.205-.74 6.414 0 2.116.247 4.17.74 6.168zM2752.39 204.992v-9.305h41.234v9.305h-15.084v41.02h-11.066v-41.02h-15.084zM2795.456 204.992v-9.305h41.234v9.305h-15.084v41.02h-11.066v-41.02h-15.084zM2861.078 195.688l18.82 50.326h-11.49l-3.806-11.207h-18.82l-3.946 11.207H2830.7l19.03-50.326h11.348zm.635 30.873l-6.344-18.466h-.142l-6.556 18.467h13.04zM2919.512 246.014l-8.528-34.256h-.142l-8.388 34.256h-11.207l-13.32-50.326h11.064l7.966 34.256h.142l8.74-34.256h10.36l8.6 34.68h.142l8.246-34.68h10.855l-13.532 50.326h-10.996zM2972.516 195.688l18.82 50.326h-11.49l-3.806-11.207h-18.82l-3.946 11.207h-11.137l19.03-50.326h11.35zm.634 30.873l-6.344-18.466h-.14l-6.557 18.467h13.04z"
        />
    </g>
    <path d="M1472.917 162.072c2.83-4.248 6.435-7.656 10.812-10.232 4.374-2.574 9.296-4.408 14.77-5.502 5.468-1.094 10.97-1.643 16.506-1.643 5.02 0 10.103.357 15.252 1.062 5.146.71 9.846 2.094 14.094 4.15 4.248 2.06 7.723 4.924 10.426 8.592s4.055 8.528 4.055 14.575v51.936c0 4.51.256 8.82.772 12.937.513 4.12 1.415 7.21 2.703 9.268h-27.802c-.516-1.545-.936-3.12-1.255-4.73-.322-1.607-.548-3.248-.674-4.922-4.377 4.506-9.527 7.658-15.446 9.46-5.922 1.8-11.97 2.702-18.148 2.702-4.763 0-9.204-.578-13.322-1.736-4.12-1.16-7.723-2.962-10.812-5.407-3.09-2.443-5.502-5.533-7.24-9.268-1.738-3.732-2.606-8.172-2.606-13.322 0-5.662.996-10.328 2.993-13.996 1.994-3.67 4.567-6.596 7.723-8.785 3.152-2.188 6.757-3.828 10.812-4.924 4.054-1.092 8.14-1.96 12.26-2.605 4.118-.643 8.172-1.16 12.163-1.545 3.988-.387 7.53-.965 10.62-1.738 3.088-.77 5.53-1.896 7.335-3.38 1.8-1.478 2.637-3.634 2.51-6.466 0-2.96-.482-5.31-1.448-7.047-.965-1.738-2.253-3.09-3.86-4.055-1.612-.965-3.477-1.607-5.6-1.932-2.124-.318-4.41-.482-6.854-.482-5.406 0-9.653 1.158-12.743 3.475-3.09 2.318-4.893 6.18-5.406 11.586h-27.416c.386-6.438 1.993-11.78 4.827-16.028zm54.155 38.71c-1.738.58-3.605 1.062-5.6 1.448-1.996.387-4.087.71-6.274.965-2.19.26-4.377.58-6.564.965-2.06.387-4.087.902-6.082 1.545-1.997.646-3.734 1.516-5.213 2.607-1.482 1.094-2.674 2.48-3.573 4.15-.902 1.674-1.352 3.8-1.352 6.37 0 2.448.45 4.51 1.352 6.18.9 1.675 2.124 2.993 3.668 3.958s3.346 1.64 5.406 2.027c2.06.385 4.182.578 6.373.578 5.406 0 9.587-.898 12.55-2.703 2.958-1.8 5.145-3.957 6.563-6.467 1.415-2.51 2.284-5.05 2.606-7.627.32-2.572.482-4.633.482-6.178v-10.232c-1.156 1.032-2.604 1.835-4.342 2.415zM1617.91 247.215v-87.652h-33.98v-20.658c4.76.13 9.363-.225 13.803-1.062 4.44-.836 8.43-2.316 11.97-4.44 3.54-2.124 6.53-4.923 8.978-8.4 2.444-3.474 4.055-7.784 4.828-12.935h21.817v135.148h-27.416zM1725.255 247.215v-87.652h-33.98v-20.658c4.76.13 9.364-.225 13.804-1.062 4.44-.836 8.428-2.316 11.97-4.44 3.538-2.124 6.53-4.923 8.977-8.4 2.443-3.474 4.054-7.784 4.827-12.935h21.817v135.148h-27.415zM1831.636 276.947c-5.28 3.477-12.616 5.213-22.01 5.213-2.833 0-5.632-.096-8.398-.29-2.77-.192-5.57-.42-8.398-.675v-22.59c2.573.258 5.213.514 7.916.773 2.703.256 5.406.32 8.11.193 3.6-.386 6.274-1.804 8.012-4.247 1.737-2.447 2.606-5.15 2.606-8.11 0-2.187-.386-4.245-1.16-6.177l-34.944-93.64h29.153l22.59 68.35h.385l21.817-68.35h28.38l-41.702 112.175c-2.963 8.11-7.08 13.903-12.357 17.377z"
    fill="#5B646E" />
    <path d="M1882.992 109.365h33.98l32.243 54.445 32.05-54.445h33.786l-51.163 84.95v52.9h-30.312V193.54l-50.583-84.177zM2025.282 150.2c3.09-8.817 7.53-16.51 13.322-23.073s12.902-11.71 21.334-15.445c8.43-3.732 17.922-5.6 28.478-5.6 10.682 0 20.206 1.867 28.574 5.6 8.365 3.734 15.446 8.88 21.238 15.445s10.232 14.256 13.322 23.072c3.09 8.815 4.633 18.372 4.633 28.67 0 10.038-1.544 19.4-4.633 28.09-3.09 8.69-7.53 16.25-13.322 22.687-5.792 6.438-12.873 11.486-21.238 15.156-8.368 3.668-17.892 5.502-28.574 5.502-10.555 0-20.05-1.834-28.478-5.502-8.432-3.67-15.542-8.72-21.334-15.156s-10.232-13.998-13.322-22.686-4.634-18.052-4.634-28.09c0-10.298 1.545-19.854 4.634-28.67zm27.705 45.562c1.35 5.473 3.505 10.396 6.468 14.77 2.96 4.378 6.82 7.886 11.584 10.522 4.76 2.64 10.55 3.957 17.375 3.957 6.82 0 12.613-1.317 17.376-3.956 4.76-2.637 8.623-6.145 11.585-10.52 2.96-4.376 5.116-9.3 6.468-14.772 1.352-5.47 2.027-11.102 2.027-16.893 0-6.05-.676-11.905-2.027-17.57-1.352-5.663-3.508-10.716-6.468-15.155-2.962-4.44-6.824-7.98-11.584-10.62-4.763-2.636-10.555-3.958-17.375-3.958-6.824 0-12.616 1.322-17.376 3.96-4.764 2.638-8.626 6.177-11.585 10.618-2.962 4.44-5.117 9.492-6.468 15.154-1.352 5.665-2.027 11.52-2.027 17.57 0 5.79.676 11.423 2.027 16.892zM2278.01 247.215l-23.362-93.83h-.386l-22.975 93.83h-30.698l-36.49-137.85h30.31l21.817 93.83h.386l23.94-93.83h28.38l23.555 94.988h.386l22.59-94.988h29.732l-37.07 137.85h-30.117z"
    fill="#2477BD" />
    <path fill="none" stroke="#96A0AA" stroke-width="30.646" d="M2403.87 105.783v144.492" />
    <defs>
        <path id="a" d="M0 51.112h1411.75v245.703H0z" />
    </defs>
    <clipPath id="b">
        <use xlink:href="#a" overflow="visible" />
    </clipPath>
    <g fill-rule="evenodd" clip-rule="evenodd" fill="#fff" stroke="#5B646E" stroke-width="10.174" clip-path="url(#b)">
        <path d="M1444.376 294.97v174.786M1444.376 469.756c-26.896 0-1414.84-.344-1463.468 0M-19.092 469.756V272.9M-19.092 272.898c48.593-.52 95.952 1.195 144.097-.922-.754-2.15-.123-4.912 0-9.193.103-3.457-1.057-8.38 0-11.033 1.172-2.93 4.957-3.137 5.627-5.52.946-2.3 8.795 1.053 7.876-2.758 3.003-3.084-.035-3.86 1.13-7.36 1.008-3.02 5.692-4.724 6.757-7.354 1.517-3.754-.184-9.262 1.126-13.79.315-1.09 1.683-2.4 2.246-3.675 1.184-2.67 3.904-6.768 4.505-10.123.92-5.05-.746-11.555 0-17.465.112-.87-1.263-4.447 2.253-3.682 3.184 8.105-.364 14.898 1.13 22.068.655 3.2 4.77 7.28 5.628 11.958 1.342 7.305-.98 13.908 0 22.986 8.1-2.018 7.06 3.434 6.754 8.28H283.73c1-7.165-1.383-13.175 0-18.392.35-1.3 2.218-1.346 3.38-3.678 1.175-2.354 1.133-2.957 1.13-5.518h4.5c.157-3.857.11-7.316 1.13-10.117-.008.02 2.015-.444 2.25-.923.746-1.537-.694-4.81 2.248-5.52 4.175-.645 4.827 1.578 9.01.922v6.43c2.562-.25 4.23.23 4.497 1.85.19 2.595-.96 6.304 2.256 6.435v-44.14c.35-2.163 5.337-.542 4.502-3.677-.486-8.06 1.402-15.59 7.884-16.55 2.73 5.49 9.21 10.52 5.624 18.39.356 2.164 5.332.543 4.505 3.678v44.14c9.88-1.132 10.343-9.94 16.886-13.794 6.773 1.207 6.375 8.28 15.765 7.355-.667 3.916.368 6.44 5.627 5.52 2.168-1.535 1.433-8.48 0-10.117.828-1.467 5.517.215 4.498-2.758V169.91c7.067.505-4.773-11.462 6.757-3.68.467-5.442 1.444-10.468 4.505-13.79 1.555 3.35 3.444 7.08 5.624 11.033 1.908 3.428 4.83 6.63 5.635 10.113 2.142 9.24-.62 19.123-1.133 29.428 4.922-.652 6.348 1.562 11.258.912-.046-2.518.073-4.44 0-7.355-.042-1.827-2.543-5.362 1.126-4.597 8.294-1.256 3.686 8.03 6.758 11.04h64.165c1.218-24.753-2.605-53.622 2.256-75.403 2.99 1.104 2.73 8.137 6.753 5.516 2.604-3.084.39-10.094 1.126-14.71 2-.214 5.634.927 4.5-1.843 2.126-12.97 4.394-25.838 6.754-38.617M505.503 77.957l1.126.46M506.63 78.418v-7.36M506.63 71.06l-1.127.46M505.503 71.52c-.2-4.35.43-9.05 1.126-10.116 11.73 1.04 32.967 2.035 21.397 11.953-4.75-1.858-9.668-1.836-20.272-1.836M507.755 71.52l-1.126-.46M506.63 78.418l1.125-.46M507.755 77.957c3.57-.114 2.865 2.268 3.386 3.678 3.495 9.67 4.035 23.96 6.743 34.94 5.62.624 1.318 9.35 7.884 9.202.008 5.627 2.812 11.617 3.375 18.383.705 8.363-2.104 17.406 2.256 23.912.115-2.36.632-4.383 2.256-5.518 1.992 2.654 2.02 6.93 4.498 9.193 2.517-3.156 6.416-5.178 8.998-8.273-2.467-2.885-2.555-7.715-2.237-12.87 1.543-2.116 4.627-2.958 6.742-4.6 2.75-9.437 7.375-18.048 11.26-26.67 1.213-2.687 1.09-6.563 4.492-8.272 3.325 12.62 10.328 22.227 13.522 34.943 1.616 1.438 5.868.72 5.623 3.674.682 3.938 4.248 9.33 0 11.956 3.86 2.053 9.93 2.312 10.136 7.354 1.527 4.008-2.683 3.326-3.372 5.518 10.62 10.02 19.426 21.527 28.137 33.104 7.255.717 11.09-1.37 18.02-.922 1.165-3.33-4.513-9.463 2.24-11.03 4.525 0 1.732 7.958 4.506 11.03h20.266c1.44-2.812-1.115 5.102 5.447 6.477 5.677.875-.958-1.86 8.06-3.715 4-.02 2.133-4.328 2.256-6.436.394-6.793-.296-16.342 0-23.912.348-2.16 5.34-.543 4.5-3.678 2.298-2.72.372-6.703 5.63-9.193 2.84-.414 2.882 3.135 3.365 4.598.605 1.763 1.11 4.616 1.134 6.437 1.677 1.39 6.412.275 5.626 3.678-.81 10.166 1.233 18.004 1.13 27.58 4.118.613 4.313-1.984 7.884-1.834 3.432 2.245 7.937 5.927 13.507 3.683 3.7 2.19 6.474 5.13 11.26 6.436.37-12.565 1.757-24.312 2.248-36.784 6.056-1.172.93-11.607 7.876-11.95 7.885.65 3.3 6.507 5.632 9.192-.556 2.902 5.585.344 4.513 3.678 1.287 22.846 2.513 45.754 4.493 68.045 4.792.073 7.872 1.54 13.507.925-3.463-5.717 1.613-6.04 7.883-4.598.483-2.977-2.608-10.22 1.126-10.543 6.378-.61 14.342 7.14 16.323 7.666 0 2.762-.38 3.988-.38 6.746 4.54 2.678-2.5 5.646 4.318 7.164 4.436.98 9.063-.69 14.633-.924 16.173-.666 37.143.525 51.792 0 1.318-12.627-1.747-27.582 0-41.375.153-1.25-1.06-4.59 2.25-3.677 6.247-.602-2.594 5.424 3.37 4.596 4.348-12.817 4.294-30.118 6.76-45.978M882.63 168.99l1.127.46M883.757 169.45v-4.597M883.757 169.45l1.126-.46M884.883 168.99c.69-1.275 4.336-.14 4.5-1.838M889.384 167.152l.555.46M889.94 167.61v-2.757M889.94 167.61l.566.462M890.506 168.072c5.72 13.422 7.21 30.28 12.38 44.137 1.9-2.433-.907-8.724 3.383-9.194 3.696 1.57 1.78 7.738 2.244 11.95-.356 2.442 6.313-.856 4.51 2.763.344 16.552-.73 27.317 0 40.456h32.652c.532-3.877 1.686-8.592 2.245-13.79.487-4.48-2.692-11.753 3.38-12.88 4.148 2.95 2.666 11.14 3.374 18.396.42 4.273 1.038 11.887 2.252 17.467 7.627 1.433 17.296 1.194 25.892 1.84-.874 4.388 1.758 5.917 1.13 10.112 10.496-.307 17.633-3.37 28.145-3.67 2.21-.645-.28-5.143 2.24-5.525h25.9c.686 1.9-1.82 6.39 2.25 5.525 6.11-.234 10.95-1.482 18.007-.928 2.758-.812 1.226-5.133 5.63-4.598h33.773c2.494.725-.21 5.693 4.505 4.598 2.83-4.715 10.205-1.658 16.886-1.836.7 2.494-1.43 7.3 1.13 8.27 3.233-4.028.574 4.325 4.5 2.76-.302-1.886 5.59-3.257 3.372-3.67v-7.36c1.547-2.738 4.355-4.455 6.757-7.354 1.64-1.98 4.785-5.045 5.627-7.36 2.283-6.25-.253-13.747 2.252-21.15 1.828-1.573 7.072-.358 6.758-3.68.126-5.1 2.394-8.458 2.245-13.79M1153.926 219.564l1.13.463M1155.057 220.027c-.03-.785.256-1.275.555-1.846M1155.057 220.027l1.126-.463M1156.183 219.564c3.138 6.324 3.172 15.186 5.635 22.068 5.865.812-1.375-9.082 4.494-8.277 3.294 2.527 2.47 8.412 3.375 12.875 9.19-.45 5.524 9.596 9.018 13.793 4.91 1.195 10.492 1.848 16.878 1.84v-24.828c4.466-.34 10.787.84 13.503-.922 1.758-3.88-6.244.2-4.497-3.674v-9.194c7.354 2.025 4.62-4.195 7.88-5.518 11.53-.705 22.286-2.033 34.904-1.846.682 2.203-1.417 6.678 1.12 7.363 3.106-3.65 3.508 2.562 4.508 3.678 2.026 5.643-5.74 3.28-4.51 8.277 6.55.467 15.523-1.04 20.27.912v13.8c8.17-.454 17.22-1.98 25.884-2.76 8.672-.778 17.912.333 24.777-2.76-1.547-5.753-2.087-23.593 0-32.185h24.754c.705-2.498-1.425-7.293 1.134-8.28h10.13v-.913M1355.438 203.016l1.134.45M1356.572 203.467v-25.742M1356.572 203.467l1.118.46M1357.69 203.928h37.146v8.28c5.754.116 11.584-.15 16.886 0 2.322.07 8.88-.247 10.132.913-.203-.183.008 9.302 0 14.722-.023 13.963.196 28.45-1.126 41.377 1.643.505 5.823-1.075 5.627.917v23.912c4.045 1.907 12.178.474 18.02.92"
        />
    </g>
</svg>
