<?xml version="1.0" encoding="iso-8859-1"?>
<!-- Generator: Adobe Illustrator 15.0.2, SVG Export Plug-In . SVG Version: 6.00 Build 0)  -->
<!DOCTYPE svg PUBLIC "-//W3C//DTD SVG 1.1//EN" "http://www.w3.org/Graphics/SVG/1.1/DTD/svg11.dtd">
<svg version="1.1" id="Layer_1" xmlns="http://www.w3.org/2000/svg" xmlns:xlink="http://www.w3.org/1999/xlink" x="0px" y="0px"
	 width="3000.001px" height="391.193px" viewBox="0 0 3000.001 391.193" style="enable-background:new 0 0 3000.001 391.193;"
	 xml:space="preserve">
<rect style="fill-rule:evenodd;clip-rule:evenodd;fill:#FFFFFF;" width="3000.002" height="391.193"/>
<g>
	<g>
		<path style="fill:#5C646E;" d="M2495.542,111.105l18.82,50.326h-11.489l-3.806-11.207h-18.819l-3.947,11.207h-11.137
			l19.031-50.326H2495.542z M2496.177,141.979l-6.344-18.467h-0.141l-6.555,18.467H2496.177z"/>
		<path style="fill:#5C646E;" d="M2551.014,124.533c-0.659-1.057-1.48-1.984-2.467-2.785c-0.987-0.797-2.104-1.42-3.348-1.867
			c-1.246-0.445-2.549-0.67-3.912-0.67c-2.491,0-4.606,0.482-6.344,1.445c-1.739,0.963-3.149,2.256-4.229,3.877
			c-1.082,1.621-1.868,3.465-2.361,5.533c-0.494,2.068-0.74,4.205-0.74,6.414c0,2.115,0.247,4.17,0.74,6.168
			c0.493,1.998,1.28,3.795,2.361,5.391c1.08,1.6,2.49,2.879,4.229,3.842c1.738,0.965,3.853,1.445,6.344,1.445
			c3.383,0,6.026-1.033,7.93-3.102c1.903-2.066,3.066-4.793,3.489-8.176h10.714c-0.282,3.148-1.011,5.99-2.185,8.529
			c-1.175,2.537-2.726,4.699-4.652,6.484c-1.928,1.785-4.183,3.148-6.767,4.088c-2.585,0.939-5.428,1.41-8.529,1.41
			c-3.854,0-7.32-0.67-10.396-2.01c-3.079-1.34-5.674-3.182-7.789-5.533c-2.114-2.35-3.735-5.109-4.863-8.281
			s-1.692-6.59-1.692-10.256c0-3.76,0.564-7.248,1.692-10.467s2.749-6.027,4.863-8.424c2.115-2.396,4.71-4.275,7.789-5.639
			c3.077-1.361,6.543-2.043,10.396-2.043c2.772,0,5.392,0.398,7.859,1.197c2.467,0.799,4.675,1.963,6.625,3.488
			c1.95,1.529,3.56,3.42,4.829,5.676c1.269,2.254,2.067,4.84,2.396,7.752h-10.714
			C2552.094,126.754,2551.671,125.59,2551.014,124.533z"/>
		<path style="fill:#5C646E;" d="M2603.244,124.533c-0.659-1.057-1.48-1.984-2.467-2.785c-0.987-0.797-2.104-1.42-3.348-1.867
			c-1.246-0.445-2.549-0.67-3.912-0.67c-2.491,0-4.606,0.482-6.344,1.445c-1.739,0.963-3.149,2.256-4.229,3.877
			c-1.082,1.621-1.868,3.465-2.361,5.533c-0.494,2.068-0.74,4.205-0.74,6.414c0,2.115,0.247,4.17,0.74,6.168
			c0.493,1.998,1.28,3.795,2.361,5.391c1.08,1.6,2.49,2.879,4.229,3.842c1.738,0.965,3.853,1.445,6.344,1.445
			c3.383,0,6.026-1.033,7.93-3.102c1.903-2.066,3.066-4.793,3.489-8.176h10.714c-0.282,3.148-1.011,5.99-2.185,8.529
			c-1.175,2.537-2.726,4.699-4.652,6.484c-1.928,1.785-4.183,3.148-6.767,4.088c-2.585,0.939-5.428,1.41-8.529,1.41
			c-3.854,0-7.32-0.67-10.396-2.01c-3.079-1.34-5.674-3.182-7.789-5.533c-2.114-2.35-3.735-5.109-4.863-8.281
			s-1.692-6.59-1.692-10.256c0-3.76,0.564-7.248,1.692-10.467s2.749-6.027,4.863-8.424c2.115-2.396,4.71-4.275,7.789-5.639
			c3.077-1.361,6.543-2.043,10.396-2.043c2.772,0,5.392,0.398,7.859,1.197c2.467,0.799,4.675,1.963,6.625,3.488
			c1.95,1.529,3.56,3.42,4.829,5.676c1.269,2.254,2.067,4.84,2.396,7.752h-10.714
			C2604.324,126.754,2603.901,125.59,2603.244,124.533z"/>
		<path style="fill:#5C646E;" d="M2660.83,111.105v9.305h-26.573v10.783h24.388v8.6h-24.388v12.336h27.137v9.303h-38.203v-50.326
			H2660.83z"/>
		<path style="fill:#5C646E;" d="M2677.322,149.027c0.61,1.174,1.421,2.127,2.433,2.854c1.01,0.73,2.195,1.27,3.56,1.621
			c1.362,0.354,2.771,0.529,4.229,0.529c0.987,0,2.044-0.082,3.172-0.246s2.186-0.482,3.172-0.953
			c0.987-0.469,1.809-1.115,2.467-1.938s0.987-1.867,0.987-3.137c0-1.361-0.436-2.467-1.305-3.312s-2.009-1.551-3.418-2.115
			c-1.41-0.562-3.008-1.057-4.793-1.48c-1.786-0.422-3.595-0.891-5.428-1.408c-1.88-0.471-3.712-1.045-5.498-1.729
			c-1.786-0.68-3.383-1.561-4.793-2.643c-1.409-1.08-2.549-2.432-3.418-4.053c-0.87-1.621-1.305-3.582-1.305-5.885
			c0-2.584,0.553-4.828,1.657-6.732c1.104-1.902,2.548-3.488,4.335-4.758c1.785-1.268,3.806-2.207,6.062-2.818
			c2.255-0.611,4.511-0.916,6.767-0.916c2.631,0,5.156,0.293,7.577,0.881c2.419,0.588,4.569,1.539,6.449,2.854
			c1.879,1.316,3.371,2.996,4.476,5.041c1.104,2.043,1.656,4.521,1.656,7.436h-10.714c-0.094-1.504-0.411-2.75-0.951-3.736
			c-0.541-0.986-1.258-1.762-2.149-2.326c-0.894-0.562-1.915-0.963-3.066-1.197c-1.152-0.234-2.408-0.354-3.771-0.354
			c-0.894,0-1.787,0.096-2.679,0.283c-0.894,0.188-1.704,0.518-2.432,0.986c-0.729,0.471-1.328,1.057-1.798,1.762
			s-0.705,1.598-0.705,2.68c0,0.986,0.188,1.785,0.564,2.396c0.375,0.609,1.115,1.174,2.22,1.691
			c1.104,0.518,2.632,1.033,4.582,1.551c1.949,0.518,4.499,1.174,7.647,1.973c0.939,0.188,2.243,0.529,3.912,1.021
			c1.667,0.494,3.324,1.281,4.969,2.361c1.645,1.082,3.066,2.527,4.265,4.336s1.798,4.123,1.798,6.941
			c0,2.305-0.447,4.441-1.34,6.416c-0.893,1.973-2.22,3.676-3.982,5.109c-1.762,1.434-3.947,2.549-6.555,3.348
			c-2.608,0.799-5.628,1.199-9.058,1.199c-2.773,0-5.463-0.342-8.07-1.023c-2.608-0.68-4.911-1.75-6.908-3.207
			c-1.997-1.455-3.583-3.312-4.758-5.568c-1.175-2.254-1.738-4.934-1.691-8.035h10.714
			C2676.406,146.418,2676.712,147.854,2677.322,149.027z"/>
		<path style="fill:#5C646E;" d="M2723.066,149.027c0.61,1.174,1.421,2.127,2.433,2.854c1.01,0.73,2.195,1.27,3.56,1.621
			c1.362,0.354,2.771,0.529,4.229,0.529c0.987,0,2.044-0.082,3.172-0.246s2.186-0.482,3.172-0.953
			c0.987-0.469,1.809-1.115,2.467-1.938s0.987-1.867,0.987-3.137c0-1.361-0.436-2.467-1.305-3.312s-2.009-1.551-3.418-2.115
			c-1.41-0.562-3.008-1.057-4.793-1.48c-1.786-0.422-3.595-0.891-5.428-1.408c-1.88-0.471-3.712-1.045-5.498-1.729
			c-1.786-0.68-3.383-1.561-4.793-2.643c-1.409-1.08-2.549-2.432-3.418-4.053c-0.87-1.621-1.305-3.582-1.305-5.885
			c0-2.584,0.553-4.828,1.657-6.732c1.104-1.902,2.548-3.488,4.335-4.758c1.785-1.268,3.806-2.207,6.062-2.818
			c2.255-0.611,4.511-0.916,6.767-0.916c2.631,0,5.156,0.293,7.577,0.881c2.419,0.588,4.569,1.539,6.449,2.854
			c1.879,1.316,3.371,2.996,4.476,5.041c1.104,2.043,1.656,4.521,1.656,7.436h-10.714c-0.094-1.504-0.411-2.75-0.951-3.736
			c-0.541-0.986-1.258-1.762-2.149-2.326c-0.894-0.562-1.915-0.963-3.066-1.197c-1.152-0.234-2.408-0.354-3.771-0.354
			c-0.894,0-1.787,0.096-2.679,0.283c-0.894,0.188-1.704,0.518-2.432,0.986c-0.729,0.471-1.328,1.057-1.798,1.762
			s-0.705,1.598-0.705,2.68c0,0.986,0.188,1.785,0.564,2.396c0.375,0.609,1.115,1.174,2.22,1.691
			c1.104,0.518,2.632,1.033,4.582,1.551c1.949,0.518,4.499,1.174,7.647,1.973c0.939,0.188,2.243,0.529,3.912,1.021
			c1.667,0.494,3.324,1.281,4.969,2.361c1.645,1.082,3.066,2.527,4.265,4.336s1.798,4.123,1.798,6.941
			c0,2.305-0.447,4.441-1.34,6.416c-0.893,1.973-2.22,3.676-3.982,5.109c-1.762,1.434-3.947,2.549-6.555,3.348
			c-2.608,0.799-5.628,1.199-9.058,1.199c-2.773,0-5.463-0.342-8.07-1.023c-2.608-0.68-4.911-1.75-6.908-3.207
			c-1.997-1.455-3.583-3.312-4.758-5.568c-1.175-2.254-1.738-4.934-1.691-8.035h10.714
			C2722.15,146.418,2722.456,147.854,2723.066,149.027z"/>
		<path style="fill:#5C646E;" d="M2771.419,111.105v50.326h-11.066v-50.326H2771.419z"/>
		<path style="fill:#5C646E;" d="M2804.829,111.105c2.396,0,4.581,0.211,6.555,0.635c1.974,0.422,3.665,1.117,5.075,2.078
			c1.409,0.965,2.502,2.246,3.277,3.842c0.775,1.598,1.163,3.572,1.163,5.922c0,2.537-0.576,4.652-1.727,6.344
			c-1.152,1.691-2.854,3.078-5.11,4.158c3.102,0.893,5.415,2.455,6.942,4.688c1.526,2.232,2.291,4.922,2.291,8.07
			c0,2.537-0.493,4.734-1.48,6.59c-0.986,1.857-2.314,3.373-3.982,4.547c-1.668,1.176-3.571,2.043-5.709,2.607
			c-2.139,0.564-4.335,0.846-6.591,0.846h-24.388v-50.326H2804.829z M2803.419,131.477c1.974,0,3.595-0.471,4.863-1.41
			c1.27-0.939,1.903-2.467,1.903-4.582c0-1.174-0.211-2.137-0.634-2.891c-0.424-0.75-0.987-1.338-1.692-1.762
			c-0.704-0.422-1.515-0.715-2.432-0.881c-0.916-0.164-1.867-0.246-2.854-0.246h-10.361v11.771H2803.419z M2804.054,152.832
			c1.08,0,2.114-0.105,3.102-0.316c0.986-0.211,1.855-0.564,2.607-1.057c0.751-0.494,1.351-1.164,1.798-2.01
			c0.445-0.846,0.669-1.926,0.669-3.242c0-2.584-0.729-4.428-2.185-5.533c-1.457-1.104-3.384-1.656-5.78-1.656h-12.053v13.814
			H2804.054z"/>
		<path style="fill:#5C646E;" d="M2841.833,111.105v50.326h-11.066v-50.326H2841.833z"/>
		<path style="fill:#5C646E;" d="M2862.626,111.105v41.023h24.529v9.303h-35.596v-50.326H2862.626z"/>
		<path style="fill:#5C646E;" d="M2904.423,111.105v50.326h-11.066v-50.326H2904.423z"/>
		<path style="fill:#5C646E;" d="M2910.202,120.41v-9.305h41.234v9.305h-15.084v41.021h-11.066V120.41H2910.202z"/>
		<path style="fill:#5C646E;" d="M2951.789,111.105h12.405l11.771,19.877l11.701-19.877h12.335l-18.679,31.014v19.312h-11.066
			v-19.594L2951.789,111.105z"/>
		<path style="fill:#5C646E;" d="M2502.732,209.115c-0.659-1.057-1.48-1.984-2.467-2.785c-0.987-0.797-2.104-1.42-3.348-1.867
			c-1.246-0.445-2.549-0.67-3.912-0.67c-2.491,0-4.606,0.482-6.344,1.445c-1.739,0.963-3.149,2.256-4.229,3.877
			c-1.082,1.621-1.868,3.465-2.361,5.533c-0.494,2.068-0.74,4.205-0.74,6.414c0,2.115,0.247,4.17,0.74,6.168
			c0.493,1.998,1.28,3.795,2.361,5.391c1.08,1.6,2.49,2.879,4.229,3.842c1.738,0.965,3.853,1.445,6.344,1.445
			c3.383,0,6.026-1.033,7.93-3.102c1.903-2.066,3.066-4.793,3.489-8.176h10.714c-0.282,3.148-1.011,5.99-2.185,8.529
			c-1.175,2.537-2.726,4.699-4.652,6.484c-1.928,1.785-4.183,3.148-6.767,4.088c-2.585,0.939-5.428,1.41-8.529,1.41
			c-3.854,0-7.32-0.67-10.396-2.01c-3.079-1.34-5.674-3.182-7.789-5.533c-2.114-2.35-3.735-5.109-4.863-8.281
			s-1.692-6.59-1.692-10.256c0-3.76,0.564-7.248,1.692-10.467s2.749-6.027,4.863-8.424c2.115-2.396,4.71-4.275,7.789-5.639
			c3.077-1.361,6.543-2.043,10.396-2.043c2.772,0,5.392,0.398,7.859,1.197c2.467,0.799,4.675,1.963,6.625,3.488
			c1.95,1.529,3.56,3.42,4.829,5.676c1.269,2.254,2.067,4.84,2.396,7.752H2504C2503.812,211.336,2503.389,210.172,2502.732,209.115z
			"/>
		<path style="fill:#5C646E;" d="M2547.771,195.688l18.82,50.326h-11.489l-3.806-11.207h-18.819l-3.947,11.207h-11.137
			l19.031-50.326H2547.771z M2548.406,226.561l-6.344-18.467h-0.141l-6.555,18.467H2548.406z"/>
		<path style="fill:#5C646E;" d="M2586.539,195.688l11.771,34.609h0.141l11.136-34.609h15.577v50.326h-10.361v-35.666h-0.141
			l-12.335,35.666h-8.529l-12.335-35.312h-0.141v35.312h-10.361v-50.326H2586.539z"/>
		<path style="fill:#5C646E;" d="M2657.587,195.688c3.147,0,5.826,0.459,8.035,1.375s4.006,2.127,5.393,3.629
			c1.386,1.506,2.396,3.221,3.031,5.146c0.634,1.928,0.951,3.924,0.951,5.99c0,2.021-0.317,4.008-0.951,5.957
			c-0.635,1.949-1.646,3.678-3.031,5.18c-1.387,1.506-3.184,2.715-5.393,3.631s-4.888,1.375-8.035,1.375h-11.63v18.043h-11.066
			v-50.326H2657.587z M2654.557,219.371c1.269,0,2.489-0.094,3.665-0.283c1.174-0.186,2.208-0.551,3.102-1.092
			c0.892-0.539,1.608-1.305,2.149-2.291c0.54-0.986,0.811-2.277,0.811-3.877c0-1.596-0.271-2.889-0.811-3.877
			c-0.541-0.986-1.258-1.75-2.149-2.289c-0.894-0.541-1.928-0.904-3.102-1.094c-1.176-0.188-2.396-0.281-3.665-0.281h-8.6v15.084
			H2654.557z"/>
		<path style="fill:#5C646E;" d="M2701.006,210.596c1.128-3.219,2.749-6.027,4.863-8.424c2.115-2.396,4.711-4.275,7.789-5.639
			c3.077-1.361,6.543-2.043,10.396-2.043c3.899,0,7.377,0.682,10.432,2.043c3.054,1.363,5.639,3.242,7.754,5.639
			c2.114,2.396,3.735,5.205,4.863,8.424s1.691,6.707,1.691,10.467c0,3.666-0.563,7.084-1.691,10.256s-2.749,5.932-4.863,8.281
			c-2.115,2.352-4.7,4.193-7.754,5.533c-3.055,1.34-6.532,2.01-10.432,2.01c-3.854,0-7.319-0.67-10.396-2.01
			c-3.078-1.34-5.674-3.182-7.789-5.533c-2.114-2.35-3.735-5.109-4.863-8.281s-1.691-6.59-1.691-10.256
			C2699.314,217.303,2699.878,213.814,2701.006,210.596z M2711.12,227.23c0.494,1.998,1.28,3.795,2.361,5.391
			c1.081,1.6,2.49,2.879,4.229,3.842c1.738,0.965,3.853,1.445,6.344,1.445c2.49,0,4.604-0.48,6.344-1.445
			c1.737-0.963,3.147-2.242,4.229-3.842c1.081-1.596,1.868-3.393,2.361-5.391c0.494-1.998,0.74-4.053,0.74-6.168
			c0-2.209-0.246-4.346-0.74-6.414c-0.493-2.068-1.28-3.912-2.361-5.533s-2.491-2.914-4.229-3.877
			c-1.739-0.963-3.854-1.445-6.344-1.445c-2.491,0-4.605,0.482-6.344,1.445c-1.739,0.963-3.148,2.256-4.229,3.877
			s-1.867,3.465-2.361,5.533c-0.493,2.068-0.739,4.205-0.739,6.414C2710.381,223.178,2710.627,225.232,2711.12,227.23z"/>
		<path style="fill:#5C646E;" d="M2752.39,204.992v-9.305h41.234v9.305h-15.084v41.021h-11.066v-41.021H2752.39z"/>
		<path style="fill:#5C646E;" d="M2795.456,204.992v-9.305h41.234v9.305h-15.084v41.021h-11.066v-41.021H2795.456z"/>
		<path style="fill:#5C646E;" d="M2861.078,195.688l18.82,50.326h-11.489l-3.807-11.207h-18.819l-3.947,11.207h-11.137
			l19.031-50.326H2861.078z M2861.713,226.561l-6.344-18.467h-0.141l-6.556,18.467H2861.713z"/>
		<path style="fill:#5C646E;" d="M2919.512,246.014l-8.528-34.256h-0.142l-8.388,34.256h-11.207l-13.321-50.326h11.065l7.965,34.256
			h0.142l8.74-34.256h10.361l8.599,34.68h0.142l8.246-34.68h10.855l-13.533,50.326H2919.512z"/>
		<path style="fill:#5C646E;" d="M2972.516,195.688l18.82,50.326h-11.489l-3.807-11.207h-18.819l-3.947,11.207h-11.137
			l19.031-50.326H2972.516z M2973.15,226.561l-6.344-18.467h-0.141l-6.556,18.467H2973.15z"/>
	</g>
</g>
<g>
	<path style="fill:#5B646E;" d="M1472.917,162.072c2.83-4.248,6.435-7.656,10.812-10.232c4.375-2.574,9.297-4.408,14.77-5.502
		c5.469-1.094,10.972-1.643,16.507-1.643c5.02,0,10.103,0.357,15.252,1.062c5.146,0.709,9.846,2.094,14.094,4.15
		c4.248,2.061,7.723,4.924,10.426,8.592s4.055,8.529,4.055,14.576v51.936c0,4.508,0.256,8.818,0.772,12.936
		c0.513,4.121,1.415,7.211,2.703,9.268h-27.802c-0.516-1.545-0.936-3.119-1.255-4.73c-0.323-1.607-0.549-3.248-0.675-4.922
		c-4.377,4.506-9.527,7.658-15.446,9.459c-5.922,1.801-11.97,2.703-18.148,2.703c-4.763,0-9.204-0.578-13.322-1.736
		c-4.121-1.158-7.723-2.961-10.812-5.406c-3.089-2.443-5.502-5.533-7.24-9.268c-1.738-3.732-2.606-8.172-2.606-13.322
		c0-5.662,0.996-10.328,2.993-13.996c1.994-3.67,4.567-6.596,7.723-8.785c3.152-2.188,6.757-3.828,10.812-4.924
		c4.054-1.092,8.139-1.961,12.26-2.605c4.118-0.643,8.172-1.16,12.163-1.545c3.988-0.387,7.53-0.965,10.619-1.738
		c3.089-0.771,5.532-1.896,7.336-3.379c1.801-1.479,2.637-3.635,2.51-6.467c0-2.959-0.482-5.311-1.448-7.047
		c-0.965-1.738-2.253-3.09-3.861-4.055c-1.611-0.965-3.476-1.607-5.599-1.932c-2.124-0.318-4.411-0.482-6.854-0.482
		c-5.406,0-9.653,1.158-12.743,3.475c-3.089,2.318-4.893,6.18-5.406,11.586h-27.416
		C1468.476,171.662,1470.083,166.32,1472.917,162.072z M1527.072,200.783c-1.738,0.578-3.605,1.061-5.599,1.447
		c-1.997,0.387-4.088,0.709-6.275,0.965c-2.19,0.26-4.377,0.58-6.564,0.965c-2.06,0.387-4.087,0.902-6.082,1.545
		c-1.997,0.646-3.734,1.516-5.213,2.607c-1.481,1.094-2.673,2.479-3.572,4.15c-0.902,1.674-1.352,3.799-1.352,6.371
		c0,2.447,0.45,4.508,1.352,6.178c0.899,1.676,2.124,2.994,3.668,3.959s3.346,1.641,5.406,2.027
		c2.058,0.385,4.181,0.578,6.372,0.578c5.406,0,9.587-0.898,12.549-2.703c2.959-1.801,5.146-3.957,6.564-6.467
		c1.415-2.51,2.284-5.051,2.606-7.627c0.32-2.572,0.482-4.633,0.482-6.178v-10.232C1530.258,199.4,1528.81,200.203,1527.072,200.783
		z"/>
	<path style="fill:#5B646E;" d="M1617.909,247.215v-87.652h-33.98v-20.658c4.76,0.129,9.364-0.225,13.804-1.062
		c4.441-0.836,8.429-2.316,11.97-4.441c3.539-2.123,6.531-4.922,8.978-8.398c2.443-3.475,4.054-7.785,4.827-12.936h21.817v135.148
		H1617.909z"/>
	<path style="fill:#5B646E;" d="M1725.255,247.215v-87.652h-33.98v-20.658c4.76,0.129,9.364-0.225,13.804-1.062
		c4.441-0.836,8.429-2.316,11.97-4.441c3.539-2.123,6.531-4.922,8.978-8.398c2.443-3.475,4.054-7.785,4.827-12.936h21.817v135.148
		H1725.255z"/>
	<path style="fill:#5B646E;" d="M1831.636,276.947c-5.279,3.477-12.616,5.213-22.01,5.213c-2.833,0-5.632-0.096-8.398-0.289
		c-2.77-0.193-5.569-0.42-8.398-0.676v-22.59c2.573,0.258,5.213,0.514,7.916,0.773c2.703,0.256,5.406,0.32,8.109,0.193
		c3.602-0.387,6.275-1.805,8.013-4.248c1.737-2.447,2.606-5.15,2.606-8.109c0-2.188-0.386-4.246-1.159-6.178l-34.945-93.639h29.153
		l22.589,68.348h0.386l21.817-68.348h28.381l-41.703,112.174C1841.03,267.68,1836.912,273.473,1831.636,276.947z"/>
	<path style="fill:#2477BD;" d="M1882.992,109.365h33.98l32.243,54.445l32.049-54.445h33.787l-51.164,84.949v52.9h-30.312v-53.672
		L1882.992,109.365z"/>
	<path style="fill:#2477BD;" d="M2025.282,150.199c3.089-8.816,7.53-16.508,13.322-23.072s12.902-11.711,21.334-15.445
		c8.429-3.732,17.922-5.6,28.478-5.6c10.682,0,20.206,1.867,28.574,5.6c8.365,3.734,15.446,8.881,21.238,15.445
		s10.232,14.256,13.322,23.072c3.089,8.816,4.633,18.373,4.633,28.67c0,10.039-1.544,19.402-4.633,28.092
		c-3.089,8.688-7.53,16.25-13.322,22.686c-5.792,6.438-12.873,11.486-21.238,15.156c-8.368,3.668-17.892,5.502-28.574,5.502
		c-10.555,0-20.049-1.834-28.478-5.502c-8.432-3.67-15.542-8.719-21.334-15.156c-5.792-6.436-10.232-13.998-13.322-22.686
		c-3.089-8.689-4.634-18.053-4.634-28.092C2020.648,168.572,2022.193,159.016,2025.282,150.199z M2052.987,195.762
		c1.351,5.473,3.505,10.396,6.468,14.771c2.959,4.377,6.821,7.885,11.584,10.521c4.76,2.639,10.552,3.957,17.376,3.957
		c6.821,0,12.613-1.318,17.376-3.957c4.76-2.637,8.622-6.145,11.584-10.521c2.959-4.375,5.116-9.299,6.468-14.771
		c1.352-5.469,2.027-11.102,2.027-16.893c0-6.049-0.676-11.904-2.027-17.57c-1.352-5.662-3.508-10.715-6.468-15.154
		c-2.962-4.441-6.824-7.98-11.584-10.619c-4.764-2.637-10.556-3.959-17.376-3.959c-6.824,0-12.616,1.322-17.376,3.959
		c-4.763,2.639-8.625,6.178-11.584,10.619c-2.962,4.439-5.117,9.492-6.468,15.154c-1.352,5.666-2.027,11.521-2.027,17.57
		C2050.96,184.66,2051.636,190.293,2052.987,195.762z"/>
	<path style="fill:#2477BD;" d="M2278.009,247.215l-23.361-93.83h-0.386l-22.975,93.83h-30.698l-36.49-137.85h30.312l21.816,93.83
		h0.386l23.94-93.83h28.381l23.554,94.988h0.386l22.589-94.988h29.733l-37.069,137.85H2278.009z"/>
</g>
<line style="fill:none;stroke:#96A0AA;stroke-width:30.6458;" x1="2403.87" y1="105.783" x2="2403.87" y2="250.275"/>
<g>
	<defs>
		<rect id="SVGID_1_" y="51.112" width="1411.75" height="245.703"/>
	</defs>
	<clipPath id="SVGID_2_">
		<use xlink:href="#SVGID_1_"  style="overflow:visible;"/>
	</clipPath>
	<g id="jgaKLu.tif_13_" style="clip-path:url(#SVGID_2_);">
		<g>
			<path style="fill-rule:evenodd;clip-rule:evenodd;fill:#FFFFFF;stroke:#5B646E;stroke-width:10.1743;" d="M1444.376,294.969
				c0,5.209,0,169.578,0,174.787"/>
			<path style="fill-rule:evenodd;clip-rule:evenodd;fill:#FFFFFF;stroke:#5B646E;stroke-width:10.1743;" d="M1444.376,469.756
				c-26.896,0-1414.841-0.344-1463.468,0"/>
			<path style="fill-rule:evenodd;clip-rule:evenodd;fill:#FFFFFF;stroke:#5B646E;stroke-width:10.1743;" d="M-19.092,469.756
				c0-12.572,0-184.291,0-196.857"/>
			<path style="fill-rule:evenodd;clip-rule:evenodd;fill:#FFFFFF;stroke:#5B646E;stroke-width:10.1743;" d="M-19.092,272.898
				c48.593-0.52,95.952,1.195,144.097-0.922c-0.754-2.15-0.123-4.912,0-9.193c0.103-3.457-1.057-8.379,0-11.033
				c1.172-2.93,4.957-3.137,5.627-5.52c0.946-2.299,8.795,1.053,7.876-2.758c3.003-3.084-0.035-3.859,1.13-7.359
				c1.008-3.02,5.692-4.725,6.757-7.355c1.517-3.754-0.184-9.262,1.126-13.791c0.314-1.088,1.682-2.398,2.245-3.674
				c1.184-2.67,3.904-6.768,4.505-10.123c0.919-5.051-0.747-11.555,0-17.465c0.111-0.869-1.264-4.447,2.252-3.682
				c3.184,8.105-0.364,14.898,1.13,22.068c0.655,3.199,4.77,7.279,5.628,11.957c1.341,7.305-0.981,13.908,0,22.986
				c8.098-2.018,7.06,3.434,6.753,8.279c37.905,0,75.806,0,113.696,0c1-7.164-1.383-13.174,0-18.391
				c0.349-1.299,2.218-1.346,3.379-3.678c1.176-2.354,1.134-2.957,1.13-5.518c1.502,0,3,0,4.501,0
				c0.157-3.857,0.111-7.316,1.13-10.117c-0.008,0.02,2.015-0.443,2.249-0.922c0.747-1.537-0.693-4.809,2.249-5.52
				c4.175-0.645,4.827,1.578,9.01,0.922c0,2.143,0,4.287,0,6.432c2.562-0.252,4.229,0.23,4.497,1.848
				c0.191,2.596-0.961,6.305,2.256,6.436c0-14.715,0-29.428,0-44.139c0.349-2.164,5.336-0.543,4.501-3.678
				c-0.486-8.059,1.402-15.59,7.884-16.549c2.731,5.49,9.209,10.52,5.624,18.389c0.356,2.164,5.332,0.543,4.505,3.678
				c0,14.709,0,29.42,0,44.141c9.879-1.133,10.343-9.941,16.886-13.795c6.772,1.207,6.374,8.279,15.764,7.355
				c-0.667,3.916,0.368,6.439,5.627,5.52c2.168-1.535,1.433-8.48,0-10.117c0.828-1.467,5.517,0.215,4.498-2.758
				c0-11.652,0-23.297,0-34.943c7.067,0.506-4.773-11.461,6.757-3.678c0.467-5.443,1.444-10.469,4.505-13.791
				c1.555,3.35,3.444,7.08,5.624,11.033c1.908,3.428,4.831,6.631,5.635,10.113c2.141,9.24-0.621,19.123-1.134,29.428
				c4.922-0.652,6.348,1.562,11.258,0.912c-0.046-2.518,0.073-4.441,0-7.355c-0.042-1.828-2.543-5.363,1.126-4.598
				c8.293-1.256,3.685,8.029,6.757,11.041c21.383,0,42.774,0,64.165,0c1.218-24.754-2.605-53.623,2.256-75.404
				c2.992,1.104,2.731,8.137,6.754,5.516c2.604-3.084,0.391-10.094,1.126-14.709c2-0.215,5.635,0.926,4.501-1.844
				c2.126-12.971,4.394-25.838,6.754-38.617"/>
			
				<line style="fill-rule:evenodd;clip-rule:evenodd;fill:#FFFFFF;stroke:#5B646E;stroke-width:10.1743;" x1="505.503" y1="77.957" x2="506.629" y2="78.418"/>
			<path style="fill-rule:evenodd;clip-rule:evenodd;fill:#FFFFFF;stroke:#5B646E;stroke-width:10.1743;" d="M506.629,78.418
				c0-2.453,0-4.904,0-7.359"/>
			
				<line style="fill-rule:evenodd;clip-rule:evenodd;fill:#FFFFFF;stroke:#5B646E;stroke-width:10.1743;" x1="506.629" y1="71.059" x2="505.503" y2="71.521"/>
			<path style="fill-rule:evenodd;clip-rule:evenodd;fill:#FFFFFF;stroke:#5B646E;stroke-width:10.1743;" d="M505.503,71.521
				c-0.199-4.352,0.429-9.052,1.126-10.117c11.73,1.039,32.968,2.035,21.398,11.953c-4.75-1.858-9.668-1.836-20.272-1.836"/>
			
				<line style="fill-rule:evenodd;clip-rule:evenodd;fill:#FFFFFF;stroke:#5B646E;stroke-width:10.1743;" x1="507.755" y1="71.521" x2="506.629" y2="71.059"/>
			
				<line style="fill-rule:evenodd;clip-rule:evenodd;fill:#FFFFFF;stroke:#5B646E;stroke-width:10.1743;" x1="506.629" y1="78.418" x2="507.755" y2="77.957"/>
			<path style="fill-rule:evenodd;clip-rule:evenodd;fill:#FFFFFF;stroke:#5B646E;stroke-width:10.1743;" d="M507.755,77.957
				c3.57-0.114,2.865,2.268,3.386,3.678c3.494,9.669,4.034,23.961,6.742,34.939c5.62,0.625,1.318,9.352,7.884,9.203
				c0.008,5.627,2.812,11.617,3.375,18.383c0.705,8.363-2.104,17.406,2.256,23.912c0.115-2.361,0.632-4.383,2.256-5.518
				c1.992,2.654,2.019,6.93,4.498,9.193c2.517-3.156,6.416-5.178,8.998-8.273c-2.467-2.885-2.555-7.715-2.237-12.871
				c1.543-2.115,4.627-2.957,6.742-4.598c2.751-9.438,7.375-18.049,11.259-26.672c1.214-2.686,1.092-6.562,4.493-8.271
				c3.325,12.619,10.328,22.227,13.522,34.943c1.617,1.438,5.869,0.721,5.624,3.674c0.682,3.939,4.248,9.332,0,11.957
				c3.861,2.053,9.929,2.312,10.136,7.354c1.528,4.008-2.682,3.326-3.371,5.518c10.619,10.02,19.426,21.527,28.137,33.104
				c7.255,0.717,11.09-1.371,18.02-0.922c1.165-3.33-4.513-9.463,2.241-11.029c4.524,0,1.731,7.957,4.505,11.029
				c6.75,0,13.511,0,20.265,0c1.44-2.812-1.115,5.102,5.447,6.477c5.677,0.875-0.958-1.861,8.06-3.715
				c3.999-0.02,2.133-4.328,2.256-6.436c0.395-6.793-0.295-16.342,0-23.912c0.349-2.16,5.34-0.543,4.501-3.678
				c2.298-2.719,0.372-6.703,5.631-9.193c2.839-0.414,2.881,3.135,3.364,4.598c0.605,1.762,1.111,4.615,1.134,6.436
				c1.678,1.391,6.413,0.275,5.627,3.678c-0.809,10.166,1.233,18.004,1.13,27.58c4.118,0.613,4.313-1.984,7.884-1.834
				c3.432,2.244,7.937,5.926,13.507,3.682c3.701,2.191,6.474,5.129,11.259,6.436c0.372-12.564,1.758-24.311,2.249-36.783
				c6.056-1.172,0.931-11.607,7.876-11.951c7.884,0.65,3.298,6.508,5.631,9.193c-0.556,2.902,5.585,0.344,4.513,3.678
				c1.287,22.846,2.513,45.754,4.493,68.045c4.792,0.072,7.872,1.539,13.507,0.924c-3.463-5.717,1.613-6.039,7.883-4.598
				c0.483-2.977-2.608-10.221,1.126-10.543c6.378-0.609,14.342,7.141,16.323,7.666c0,2.762-0.379,3.988-0.379,6.746
				c4.54,2.678-2.501,5.646,4.317,7.164c4.436,0.98,9.063-0.689,14.633-0.924c16.173-0.666,37.143,0.525,51.792,0
				c1.318-12.627-1.747-27.582,0-41.375c0.153-1.25-1.061-4.59,2.249-3.678c6.248-0.602-2.593,5.424,3.371,4.596
				c4.348-12.816,4.294-30.117,6.761-45.977"/>
			
				<line style="fill-rule:evenodd;clip-rule:evenodd;fill:#FFFFFF;stroke:#5B646E;stroke-width:10.1743;" x1="882.63" y1="168.99" x2="883.757" y2="169.451"/>
			<path style="fill-rule:evenodd;clip-rule:evenodd;fill:#FFFFFF;stroke:#5B646E;stroke-width:10.1743;" d="M883.757,169.451
				c0-1.533,0-3.064,0-4.598"/>
			
				<line style="fill-rule:evenodd;clip-rule:evenodd;fill:#FFFFFF;stroke:#5B646E;stroke-width:10.1743;" x1="883.757" y1="169.451" x2="884.883" y2="168.99"/>
			<path style="fill-rule:evenodd;clip-rule:evenodd;fill:#FFFFFF;stroke:#5B646E;stroke-width:10.1743;" d="M884.883,168.99
				c0.689-1.275,4.336-0.141,4.501-1.838"/>
			
				<line style="fill-rule:evenodd;clip-rule:evenodd;fill:#FFFFFF;stroke:#5B646E;stroke-width:10.1743;" x1="889.384" y1="167.152" x2="889.939" y2="167.611"/>
			<path style="fill-rule:evenodd;clip-rule:evenodd;fill:#FFFFFF;stroke:#5B646E;stroke-width:10.1743;" d="M889.939,167.611
				c0-0.918,0-1.838,0-2.758"/>
			
				<line style="fill-rule:evenodd;clip-rule:evenodd;fill:#FFFFFF;stroke:#5B646E;stroke-width:10.1743;" x1="889.939" y1="167.611" x2="890.506" y2="168.072"/>
			<path style="fill-rule:evenodd;clip-rule:evenodd;fill:#FFFFFF;stroke:#5B646E;stroke-width:10.1743;" d="M890.506,168.072
				c5.719,13.422,7.209,30.281,12.381,44.137c1.9-2.432-0.908-8.723,3.382-9.193c3.697,1.57,1.781,7.738,2.245,11.951
				c-0.356,2.441,6.313-0.857,4.509,2.762c0.345,16.553-0.728,27.318,0,40.457c10.879,0,21.77,0,32.653,0
				c0.532-3.877,1.686-8.592,2.245-13.791c0.486-4.479-2.693-11.752,3.378-12.879c4.149,2.949,2.667,11.141,3.375,18.396
				c0.421,4.273,1.038,11.887,2.252,17.467c7.627,1.434,17.296,1.195,25.892,1.84c-0.874,4.389,1.758,5.918,1.13,10.113
				c10.496-0.307,17.633-3.371,28.145-3.67c2.21-0.645-0.28-5.143,2.241-5.525c8.634,0,17.269,0,25.899,0
				c0.686,1.9-1.82,6.391,2.249,5.525c6.11-0.234,10.952-1.482,18.008-0.928c2.758-0.812,1.226-5.133,5.631-4.598
				c11.259,0,22.517,0,33.772,0c2.494,0.725-0.21,5.693,4.505,4.598c2.831-4.715,10.205-1.658,16.886-1.836
				c0.701,2.494-1.429,7.299,1.13,8.271c3.233-4.029,0.574,4.324,4.501,2.758c-0.303-1.885,5.589-3.256,3.371-3.67
				c0-2.459,0-4.91,0-7.359c1.547-2.738,4.355-4.455,6.757-7.354c1.639-1.98,4.785-5.045,5.627-7.359
				c2.283-6.252-0.253-13.748,2.252-21.15c1.828-1.574,7.072-0.359,6.758-3.68c0.126-5.1,2.394-8.459,2.245-13.791"/>
			
				<line style="fill-rule:evenodd;clip-rule:evenodd;fill:#FFFFFF;stroke:#5B646E;stroke-width:10.1743;" x1="1153.926" y1="219.564" x2="1155.057" y2="220.027"/>
			<path style="fill-rule:evenodd;clip-rule:evenodd;fill:#FFFFFF;stroke:#5B646E;stroke-width:10.1743;" d="M1155.057,220.027
				c-0.031-0.785,0.256-1.275,0.555-1.846"/>
			
				<line style="fill-rule:evenodd;clip-rule:evenodd;fill:#FFFFFF;stroke:#5B646E;stroke-width:10.1743;" x1="1155.057" y1="220.027" x2="1156.183" y2="219.564"/>
			<path style="fill-rule:evenodd;clip-rule:evenodd;fill:#FFFFFF;stroke:#5B646E;stroke-width:10.1743;" d="M1156.183,219.564
				c3.138,6.324,3.172,15.186,5.635,22.068c5.865,0.812-1.375-9.082,4.494-8.277c3.294,2.527,2.471,8.412,3.375,12.875
				c9.19-0.449,5.524,9.596,9.018,13.793c4.911,1.195,10.492,1.848,16.878,1.84c0-8.275,0-16.549,0-24.828
				c4.466-0.34,10.787,0.84,13.503-0.922c1.758-3.881-6.244,0.199-4.497-3.674c0-3.068,0-6.133,0-9.193
				c7.355,2.025,4.62-4.195,7.88-5.518c11.53-0.705,22.287-2.033,34.905-1.846c0.682,2.203-1.417,6.678,1.119,7.363
				c3.107-3.65,3.509,2.562,4.509,3.678c2.026,5.643-5.739,3.281-4.509,8.277c6.55,0.467,15.522-1.039,20.268,0.912
				c0,4.604,0,9.201,0,13.799c8.171-0.453,17.22-1.979,25.885-2.76c8.672-0.777,17.912,0.334,24.777-2.758
				c-1.547-5.754-2.087-23.594,0-32.186c8.24,0,16.503,0,24.754,0c0.705-2.498-1.425-7.293,1.134-8.281c3.371,0,6.75,0,10.128,0
				c0-0.299,0-0.613,0-0.912"/>
			
				<line style="fill-rule:evenodd;clip-rule:evenodd;fill:#FFFFFF;stroke:#5B646E;stroke-width:10.1743;" x1="1355.438" y1="203.016" x2="1356.572" y2="203.467"/>
			<path style="fill-rule:evenodd;clip-rule:evenodd;fill:#FFFFFF;stroke:#5B646E;stroke-width:10.1743;" d="M1356.572,203.467
				c0-8.576,0-17.16,0-25.742"/>
			
				<line style="fill-rule:evenodd;clip-rule:evenodd;fill:#FFFFFF;stroke:#5B646E;stroke-width:10.1743;" x1="1356.572" y1="203.467" x2="1357.69" y2="203.928"/>
			<path style="fill-rule:evenodd;clip-rule:evenodd;fill:#FFFFFF;stroke:#5B646E;stroke-width:10.1743;" d="M1357.69,203.928
				c12.385,0,24.766,0,37.146,0c0,2.762,0,5.523,0,8.281c5.754,0.115,11.584-0.152,16.886,0c2.322,0.068,8.88-0.248,10.132,0.912
				c-0.203-0.184,0.008,9.301,0,14.721c-0.023,13.963,0.196,28.451-1.126,41.377c1.643,0.506,5.823-1.074,5.627,0.918
				c0,7.973,0,15.939,0,23.912c4.045,1.908,12.178,0.475,18.02,0.92"/>
		</g>
	</g>
</g>
</svg>
